<?xml version="1.0" standalone="no"?>
<!DOCTYPE svg PUBLIC "-//W3C//DTD SVG 20010904//EN"
 "http://www.w3.org/TR/2001/REC-SVG-20010904/DTD/svg10.dtd">
<svg version="1.0" xmlns="http://www.w3.org/2000/svg"
 width="161.000000pt" height="268.000000pt" viewBox="0 0 161.000000 268.000000"
 preserveAspectRatio="xMidYMid meet">

<g transform="translate(0.000000,268.000000) scale(0.100000,-0.100000)"
fill="#000000" stroke="none">
<path d="M1474 2671 c-12 -5 -31 -22 -44 -38 -29 -37 -23 -98 15 -130 62 -54
165 -9 165 71 0 66 -78 121 -136 97z"/>
<path d="M239 2244 c-11 -13 -15 -193 -21 -948 -4 -512 -5 -938 -2 -947 12
-40 93 -43 108 -4 3 9 7 123 7 253 1 225 13 627 17 570 3 -48 31 -164 53 -224
28 -75 88 -139 121 -129 87 27 137 163 173 470 9 77 19 151 22 165 3 14 18
-70 33 -191 16 -119 35 -244 44 -278 43 -167 116 -225 185 -146 52 60 83 194
117 505 l18 165 28 -200 c31 -227 63 -342 108 -398 54 -65 104 -48 161 53 l31
55 -6 -40 c-3 -22 -6 -157 -6 -301 l0 -260 -122 -18 c-213 -31 -1010 -165
-1083 -182 -101 -24 -192 -67 -206 -98 -17 -36 -3 -73 34 -93 29 -16 66 -18
397 -17 295 1 431 6 706 27 188 15 348 29 356 32 39 15 42 94 3 108 -9 4 -71
2 -138 -3 -324 -25 -1017 -57 -1007 -47 10 11 282 57 625 107 499 73 529 78
541 95 11 15 24 802 24 1515 0 287 -3 389 -12 398 -17 17 -73 15 -89 -4 -8
-10 -18 -101 -30 -282 -22 -330 -43 -534 -75 -722 -25 -148 -33 -184 -40 -178
-26 27 -86 444 -129 913 -22 239 -26 261 -46 278 -27 22 -41 22 -69 -1 -20
-17 -23 -31 -31 -163 -35 -571 -73 -931 -111 -1049 l-11 -35 -14 50 c-25 99
-76 549 -122 1084 -9 111 -19 131 -66 131 -48 0 -53 -21 -70 -270 -32 -475
-72 -810 -116 -974 -11 -40 -12 -40 -21 -16 -38 102 -105 572 -152 1080 -12
124 -18 157 -32 167 -25 18 -69 16 -85 -3z"/>
</g>
</svg>
